<svg xmlns="http://www.w3.org/2000/svg" height="40" viewBox="0 96 960 960" width="40"><path d="M277.362 971.229q-30.855 0-52.313-21.71-21.458-21.71-21.458-52.671t21.632-52.494q21.631-21.533 52.482-21.533 30.85 0 52.444 21.71t21.594 52.671q0 30.961-21.71 52.494t-52.671 21.533Zm403.691 0q-30.855 0-52.313-21.71-21.458-21.71-21.458-52.671t21.632-52.494q21.631-21.533 52.482-21.533t52.445 21.71q21.594 21.71 21.594 52.671t-21.711 52.494q-21.71 21.533-52.671 21.533Zm-481.36-724.305h591.001q24.035 0 36.349 21.09 12.314 21.09.185 42.859l-138.009 248.53q-10.309 18.557-28.523 30.217-18.213 11.661-39.567 11.661H318.667l-44.257 80.257q-2.821 4.615-.064 10t8.526 5.385h473.896v67.588H272.667q-43.845 0-63.23-33.55-19.384-33.551-.102-70.038l59.282-109.693-149.333-316.308H39.951v-67.588h122.152l37.59 79.59Z"/></svg>